<svg width="281" height="70" viewBox="0 0 281 70" fill="none" xmlns="http://www.w3.org/2000/svg">
<path d="M36.1418 36.0441C39.1633 33.0227 39.1633 28.1239 36.1418 25.1024C33.1203 22.081 28.2216 22.081 25.2001 25.1024C22.1786 28.1239 22.1786 33.0227 25.2001 36.0441C28.2216 39.0656 33.1203 39.0656 36.1418 36.0441Z" fill="#1A3665"/>
<path d="M42.6886 67.836C43.2193 69.4839 45.0349 70.3219 46.6549 69.6515C53.2747 66.9422 59.0565 62.5849 63.4976 57.1103C64.5869 55.7696 64.3076 53.7865 62.8831 52.8089C61.5983 51.915 59.8665 52.1944 58.8889 53.3954C55.0623 58.1158 50.0905 61.8307 44.3925 64.177C42.94 64.7635 42.2138 66.3556 42.6886 67.836Z" fill="white"/>
<path d="M54.3639 44.2618C53.0511 43.6194 51.459 44.0942 50.5932 45.2953C46.0962 51.4123 38.834 55.3786 30.6501 55.3786C16.8519 55.3786 5.70726 44.0942 5.93072 30.2681C6.12624 17.2521 16.5726 6.49845 29.5608 5.93983C38.1916 5.57672 45.9007 9.62677 50.5932 16.0231C51.459 17.1962 53.0511 17.671 54.336 17.0286C56.0119 16.2186 56.5146 14.0958 55.4253 12.6154C49.6435 4.71084 40.1747 -0.344762 29.5608 0.0183469C13.4722 0.549045 0.400282 13.7886 0.00924073 29.905C-0.409732 47.1667 13.4722 61.3 30.678 61.3C40.873 61.3 49.8949 56.3282 55.4812 48.675C56.5426 47.2226 56.0398 45.0998 54.3639 44.2618Z" fill="#E45725"/>
<path d="M23.779 19.4307C26.1252 18.0062 28.9463 17.2521 31.9629 17.5593C38.3592 18.1738 43.4707 23.397 43.9176 29.7933C44.4762 37.5303 38.3313 44.0384 30.6781 44.0384C28.1642 44.0384 25.8459 43.3401 23.8349 42.139C22.6617 41.4407 21.1534 41.5804 20.1758 42.5301L20.1479 42.558C18.7793 43.9266 19.0586 46.217 20.7065 47.1946C24.198 49.3174 28.276 50.2671 32.5215 49.876C36.2364 49.5409 39.8117 48.0884 42.7165 45.7142C47.6604 41.6921 50.258 35.7148 49.8391 29.4023C49.5597 25.3522 47.9956 21.4418 45.3421 18.3414C41.6272 13.9562 36.3202 11.5261 30.6501 11.5261C27.1028 11.5261 23.6952 12.4758 20.7065 14.2913C19.0586 15.2969 18.7513 17.5872 20.12 18.9559C21.1255 19.9335 22.6059 20.1569 23.779 19.4307Z" fill="#E45725"/>
<path d="M173.492 29.4861C173.631 30.0726 173.575 30.6313 173.268 31.162C172.961 31.6647 172.514 31.9999 171.9 32.1675C169.498 32.7541 166.369 33.5361 162.459 34.4858C157.627 35.6869 154.498 36.441 153.046 36.8041C154.359 39.29 156.398 40.7983 159.163 41.3011C161.006 41.6363 162.794 41.4128 164.47 40.6028C166.118 39.8207 167.375 38.6197 168.296 37.0555C168.827 36.1338 169.609 35.7707 170.643 35.9662C171.397 36.1058 171.928 36.5248 172.235 37.2231C172.542 37.8934 172.514 38.5638 172.123 39.2342C170.754 41.6363 168.827 43.3959 166.341 44.5691C163.772 45.7701 161.118 46.1332 158.353 45.6025C154.778 44.9322 151.984 43.1166 149.918 40.128C147.851 37.1393 147.152 33.8713 147.823 30.2961C148.493 26.7208 150.309 23.9277 153.297 21.8608C156.286 19.7938 159.554 19.0956 163.129 19.7659C165.699 20.2407 167.933 21.3859 169.805 23.1736C171.648 24.9332 172.877 27.056 173.492 29.4861ZM162.319 24.207C159.945 23.7601 157.766 24.235 155.811 25.6036C153.856 26.9722 152.655 28.8436 152.208 31.1899C152.124 31.6089 152.096 32.0278 152.068 32.4747L168.296 28.4805C166.956 26.1064 164.973 24.6819 162.319 24.207Z" fill="#1A3665"/>
<path d="M76.4858 20.3525C77.5192 20.6597 78.022 21.358 78.022 22.4473V22.5591C78.022 23.2853 77.7148 23.8718 77.1282 24.3187C76.5137 24.7656 75.8713 24.8774 75.1451 24.6539C74.3071 24.3746 73.4133 24.207 72.4916 24.207C70.0895 24.207 68.0225 25.045 66.3187 26.7488C64.6428 28.4526 63.8049 30.4916 63.8049 32.9216C63.8049 35.3237 64.6428 37.3627 66.3187 39.0666C68.0225 40.7704 70.0615 41.6083 72.4916 41.6083C73.4133 41.6083 74.2792 41.4687 75.1451 41.1894C75.8433 40.9659 76.5137 41.0776 77.1282 41.4966C77.7148 41.9435 78.022 42.5301 78.022 43.2842C78.022 44.3456 77.5192 45.0439 76.4858 45.3791C75.2009 45.7701 73.8881 45.9936 72.5195 45.9936C68.8884 45.9936 65.788 44.7087 63.2183 42.139C60.6486 39.5693 59.3638 36.4689 59.3638 32.8378C59.3638 29.2067 60.6486 26.1064 63.2183 23.5367C65.788 20.967 68.8884 19.6821 72.5195 19.6821C73.8881 19.738 75.2009 19.9335 76.4858 20.3525Z" fill="#1A3665"/>
<path d="M90.5072 35.1003C90.5072 36.8879 91.1217 38.3962 92.3786 39.6811C93.6356 40.938 95.1718 41.5525 96.9873 41.5525C98.775 41.5525 100.283 40.938 101.568 39.6811C102.825 38.4241 103.44 36.8879 103.44 35.1003V21.9446C103.44 21.3301 103.663 20.8273 104.082 20.3804C104.529 19.9614 105.032 19.738 105.646 19.738H105.702C106.316 19.738 106.819 19.9614 107.238 20.3804C107.685 20.8273 107.881 21.3301 107.881 21.9446V35.1003C107.881 38.089 106.819 40.6587 104.668 42.8094C102.546 44.9322 99.976 46.0215 96.9594 46.0215C93.9428 46.0215 91.3731 44.9601 89.2224 42.8094C87.0996 40.6866 86.0103 38.1169 86.0103 35.1003V21.9446C86.0103 21.3301 86.2337 20.8273 86.6527 20.3804C87.0996 19.9614 87.6024 19.738 88.1889 19.738H88.2727C88.8593 19.738 89.39 19.9614 89.8089 20.3804C90.2558 20.8273 90.4514 21.3301 90.4514 21.9446V35.1003H90.5072Z" fill="#1A3665"/>
<path d="M118.914 9.87815C119.5 9.87815 120.031 10.0737 120.45 10.4926C120.897 10.9395 121.092 11.4423 121.092 12.0568V23.0339C123.55 20.8273 126.455 19.738 129.779 19.738C133.41 19.738 136.511 21.0228 139.08 23.5925C141.65 26.1622 142.935 29.2626 142.935 32.8937C142.935 36.5248 141.65 39.6252 139.08 42.1949C136.511 44.7646 133.41 46.0494 129.779 46.0494C126.148 46.0494 123.075 44.7646 120.506 42.2228C117.936 39.681 116.651 36.5807 116.623 32.9775V12.0847C116.623 11.4702 116.847 10.9675 117.266 10.5206C117.713 10.1016 118.215 9.90608 118.802 9.90608H118.914V9.87815ZM129.779 24.2349C127.377 24.2349 125.31 25.0729 123.606 26.7767C121.93 28.4805 121.092 30.5195 121.092 32.9496C121.092 35.3517 121.93 37.3907 123.606 39.0945C125.31 40.7983 127.349 41.6362 129.779 41.6362C132.209 41.6362 134.22 40.7983 135.924 39.0945C137.628 37.3907 138.466 35.3517 138.466 32.9496C138.466 30.5474 137.628 28.4805 135.924 26.7767C134.248 25.1008 132.181 24.2349 129.779 24.2349Z" fill="#1A3665"/>
<path d="M202.82 9.87815C203.406 9.87815 203.937 10.0737 204.356 10.4926C204.803 10.9396 204.998 11.4423 204.998 12.0568V32.9496C204.971 36.5527 203.686 39.6252 201.116 42.1949C198.546 44.7366 195.474 46.0215 191.843 46.0215C188.212 46.0215 185.111 44.7367 182.542 42.167C179.972 39.5973 178.687 36.4969 178.687 32.8658C178.687 29.2347 179.972 26.1343 182.542 23.5646C185.111 20.9949 188.212 19.71 191.843 19.71C195.139 19.71 198.044 20.7994 200.529 23.0059V12.0289C200.529 11.4144 200.753 10.9116 201.172 10.4647C201.619 10.0457 202.122 9.85023 202.708 9.85023H202.82V9.87815ZM185.698 26.7767C184.022 28.4805 183.184 30.5195 183.184 32.9496C183.184 35.3517 184.022 37.3907 185.698 39.0945C187.402 40.7983 189.441 41.6363 191.871 41.6363C194.301 41.6363 196.312 40.7983 198.016 39.0945C199.719 37.3907 200.557 35.3517 200.557 32.9496C200.557 30.5475 199.719 28.4805 198.016 26.7767C196.34 25.0729 194.273 24.2349 191.871 24.2349C189.469 24.2349 187.402 25.1008 185.698 26.7767Z" fill="#1A3665"/>
<path d="M226.171 19.738C229.802 19.738 232.902 21.0228 235.472 23.5925C238.042 26.1622 239.326 29.2626 239.326 32.8937C239.326 36.5248 238.042 39.6252 235.472 42.1949C232.902 44.7646 229.802 46.0494 226.171 46.0494C222.54 46.0494 219.439 44.7646 216.869 42.1949C214.3 39.6252 213.015 36.5248 213.015 32.8937C213.015 29.2626 214.3 26.1622 216.869 23.5925C219.439 21.0228 222.54 19.738 226.171 19.738ZM226.171 24.2349C223.769 24.2349 221.702 25.0729 219.998 26.7767C218.322 28.4805 217.484 30.5195 217.484 32.9496C217.484 35.3517 218.322 37.3907 219.998 39.0945C221.702 40.7983 223.741 41.6363 226.171 41.6363C228.601 41.6363 230.612 40.7983 232.316 39.0945C234.019 37.3907 234.857 35.3517 234.857 32.9496C234.857 30.5475 234.019 28.4805 232.316 26.7767C230.612 25.1008 228.573 24.2349 226.171 24.2349Z" fill="#1A3665"/>
<path d="M249.605 9.87815C250.192 9.87815 250.722 10.0737 251.141 10.4926C251.588 10.9395 251.784 11.4423 251.784 12.0568V19.738H256.141C256.728 19.738 257.258 19.9614 257.677 20.3804C258.096 20.8273 258.32 21.3301 258.32 21.9446V22.0004C258.32 22.6149 258.096 23.1177 257.677 23.5367C257.23 23.9836 256.728 24.1791 256.141 24.1791H251.812V39.1783C251.812 39.8486 252.035 40.4073 252.51 40.8542C252.985 41.329 253.543 41.5525 254.214 41.5525H256.141C256.728 41.5525 257.258 41.7759 257.677 42.1949C258.096 42.6418 258.32 43.1445 258.32 43.759V43.8149C258.32 44.4294 258.096 44.9322 257.677 45.3511C257.23 45.7701 256.728 45.9936 256.141 45.9936H254.214C252.314 45.9936 250.694 45.3232 249.354 44.0104C248.013 42.6697 247.371 41.0497 247.371 39.1783V12.0568C247.371 11.4423 247.594 10.9395 248.013 10.4926C248.46 10.0737 248.963 9.87815 249.549 9.87815H249.605Z" fill="#1A3665"/>
<path d="M272.369 24.1791C271.475 24.1791 270.721 24.4863 270.079 25.1287C269.464 25.7712 269.129 26.5253 269.129 27.4191C269.129 28.6761 269.716 29.5978 270.917 30.2402C271.28 30.4357 272.676 30.8547 275.079 31.4971C276.866 31.9999 278.179 32.6702 279.017 33.4803C280.19 34.5975 280.805 36.2455 280.805 38.3683C280.805 40.4911 280.05 42.3066 278.57 43.8149C277.062 45.2953 275.246 46.0494 273.123 46.0494H266.839C266.252 46.0494 265.722 45.826 265.303 45.407C264.884 44.988 264.66 44.4853 264.66 43.8708V43.8149C264.66 43.2004 264.884 42.6977 265.303 42.2508C265.749 41.8039 266.252 41.6083 266.839 41.6083H273.347C274.241 41.6083 274.995 41.3011 275.637 40.6587C276.252 40.0442 276.587 39.2621 276.587 38.3683C276.587 37.1672 276 36.3013 274.799 35.7148C274.52 35.5751 273.151 35.1561 270.638 34.4579C268.85 33.9272 267.537 33.2568 266.699 32.4468C265.498 31.2737 264.912 29.5978 264.912 27.4471C264.912 25.3243 265.666 23.5367 267.146 22.0284C268.654 20.5201 270.47 19.7659 272.593 19.7659H277.034C277.648 19.7659 278.151 19.9894 278.598 20.4083C279.045 20.8552 279.24 21.358 279.24 21.9725V22.0284C279.24 22.6428 279.017 23.1456 278.598 23.5646C278.179 24.0115 277.648 24.207 277.034 24.207H272.369V24.1791Z" fill="#1A3665"/>
<path d="M211.451 61.4676C211.451 61.6073 211.451 61.719 211.395 61.8307C211.367 61.9145 211.311 61.9983 211.227 62.0821C211.06 62.2497 210.864 62.3614 210.613 62.3614C209.886 62.3894 208.909 62.4173 207.708 62.4732C206.227 62.529 205.334 62.557 205.082 62.5849C205.25 63.1435 205.697 63.5904 206.395 63.8697C206.87 64.0652 207.345 64.0932 207.847 63.9815C208.35 63.8697 208.741 63.6183 209.076 63.2273C209.356 62.9201 209.691 62.8363 210.082 63.0039C210.361 63.1156 210.529 63.3111 210.613 63.6184C210.669 63.8139 210.641 63.9815 210.585 64.1211C210.557 64.2049 210.501 64.2887 210.417 64.3725C209.831 65.0149 209.132 65.4618 208.294 65.6574C207.428 65.8808 206.591 65.797 205.753 65.4618C204.691 65.0429 203.937 64.2887 203.49 63.2273C203.043 62.1659 203.043 61.1045 203.462 60.0431C203.909 58.9817 204.635 58.2276 205.697 57.7807C206.758 57.3338 207.819 57.3338 208.881 57.7527C209.635 58.06 210.25 58.5628 210.724 59.2331C211.171 59.9593 211.423 60.6855 211.451 61.4676ZM208.211 59.4566C207.596 59.2052 206.982 59.2052 206.367 59.4566C205.753 59.7079 205.334 60.1548 205.082 60.7693L205.054 60.8252L209.467 60.6855C209.328 60.1269 208.881 59.7359 208.211 59.4566Z" fill="#1A3665"/>
<path d="M155.169 61.4676C155.169 61.6073 155.169 61.719 155.113 61.8307C155.085 61.9145 155.029 61.9983 154.945 62.0821C154.778 62.2497 154.582 62.3614 154.331 62.3614C153.604 62.3894 152.627 62.4173 151.426 62.4732C149.945 62.529 149.052 62.557 148.8 62.5849C148.968 63.1435 149.415 63.5904 150.113 63.8697C150.588 64.0652 151.063 64.0932 151.565 63.9815C152.068 63.8697 152.459 63.6183 152.794 63.2273C153.074 62.9201 153.409 62.8363 153.8 63.0039C154.079 63.1156 154.247 63.3111 154.331 63.6184C154.387 63.8139 154.359 63.9815 154.303 64.1211C154.275 64.2049 154.219 64.2887 154.135 64.3725C153.549 65.0149 152.85 65.4618 152.012 65.6574C151.146 65.8808 150.309 65.797 149.471 65.4618C148.409 65.0429 147.655 64.2887 147.208 63.2273C146.761 62.1659 146.761 61.1045 147.18 60.0431C147.627 58.9817 148.353 58.2276 149.415 57.7807C150.476 57.3338 151.538 57.3338 152.599 57.7527C153.353 58.06 153.968 58.5628 154.442 59.2331C154.889 59.9593 155.141 60.6855 155.169 61.4676ZM151.929 59.4566C151.314 59.2052 150.7 59.2052 150.085 59.4566C149.471 59.7079 149.052 60.1548 148.8 60.7693L148.772 60.8252L153.185 60.6855C153.046 60.1269 152.627 59.7359 151.929 59.4566Z" fill="#1A3665"/>
<path d="M158.66 64.987C158.66 65.2384 158.576 65.4339 158.409 65.6015C158.241 65.7691 158.046 65.8529 157.794 65.8529H157.766C157.543 65.8529 157.319 65.7691 157.152 65.6015C156.984 65.4339 156.9 65.2384 156.9 64.987V61.0207C156.9 60.071 157.236 59.261 157.906 58.5627C158.576 57.8924 159.386 57.5572 160.364 57.5572C161.509 57.5572 162.375 57.9482 162.934 58.7024C163.52 57.9482 164.358 57.5572 165.503 57.5572C166.453 57.5572 167.263 57.8924 167.961 58.5627C168.632 59.2331 168.967 60.071 168.967 61.0207V64.987C168.967 65.2384 168.883 65.4339 168.715 65.6015C168.548 65.7691 168.324 65.8529 168.101 65.8529H168.073C167.822 65.8529 167.626 65.7691 167.458 65.6015C167.291 65.4339 167.207 65.2384 167.207 64.987V61.0207C167.207 60.5459 167.04 60.1548 166.704 59.8197C166.369 59.4845 165.978 59.3169 165.503 59.3169C165.028 59.3169 164.637 59.4845 164.302 59.8197C163.967 60.1548 163.799 60.5459 163.799 61.0207V64.987C163.799 65.2384 163.716 65.4339 163.548 65.6015C163.38 65.7691 163.185 65.8529 162.934 65.8529H162.906C162.654 65.8529 162.459 65.7691 162.291 65.6015C162.124 65.4339 162.04 65.2384 162.04 64.987V61.0207C162.04 60.5459 161.872 60.1548 161.537 59.8197C161.202 59.4845 160.811 59.3169 160.336 59.3169C159.861 59.3169 159.47 59.4845 159.135 59.8197C158.8 60.1548 158.632 60.5459 158.632 61.0207L158.66 64.987Z" fill="#1A3665"/>
<path d="M171.341 68.8415C171.118 68.8415 170.894 68.7577 170.726 68.5901C170.559 68.4225 170.475 68.227 170.475 67.9756V61.719C170.475 60.5738 170.894 59.5962 171.704 58.7862C172.514 57.9762 173.492 57.5851 174.637 57.5851C175.782 57.5851 176.76 58.0041 177.57 58.8141C178.38 59.6241 178.771 60.6017 178.771 61.7469C178.771 62.8921 178.352 63.8697 177.542 64.6797C176.732 65.4897 175.754 65.8808 174.609 65.8808C173.575 65.8808 172.765 65.6294 172.235 65.1546V67.9756C172.235 68.1991 172.151 68.4225 171.983 68.5901C171.816 68.7298 171.62 68.8415 171.341 68.8415ZM176.313 63.3949C176.788 62.9201 177.011 62.3614 177.011 61.719C177.011 61.0486 176.788 60.49 176.313 60.0152C175.866 59.5403 175.279 59.3169 174.637 59.3169C173.967 59.3169 173.408 59.5403 172.933 60.0152C172.458 60.49 172.235 61.0486 172.235 61.719C172.235 62.3894 172.458 62.948 172.933 63.3949C173.408 63.8697 173.967 64.0932 174.637 64.0932C175.279 64.0932 175.866 63.8697 176.313 63.3949Z" fill="#1A3665"/>
<path d="M184.022 57.5851C185.167 57.5851 186.145 58.0041 186.955 58.8141C187.765 59.6241 188.156 60.6017 188.156 61.7469C188.156 62.8921 187.737 63.8697 186.927 64.6797C186.117 65.4897 185.139 65.8808 183.994 65.8808C182.849 65.8808 181.871 65.4618 181.061 64.6518C180.251 63.8418 179.86 62.8642 179.86 61.719C179.86 60.5738 180.279 59.5962 181.089 58.7862C181.899 58.0041 182.877 57.5851 184.022 57.5851ZM184.022 59.3727C183.352 59.3727 182.793 59.5962 182.318 60.071C181.843 60.5459 181.62 61.1045 181.62 61.7748C181.62 62.4452 181.843 63.0038 182.318 63.4507C182.793 63.9256 183.352 64.149 184.022 64.149C184.692 64.149 185.251 63.9256 185.698 63.4507C186.173 62.9759 186.396 62.4173 186.396 61.7748C186.396 61.1045 186.173 60.5459 185.698 60.071C185.223 59.5962 184.664 59.3727 184.022 59.3727Z" fill="#1A3665"/>
<path d="M191.228 62.4173C191.228 62.8921 191.396 63.2832 191.731 63.6183C192.066 63.9535 192.457 64.1211 192.932 64.1211C193.407 64.1211 193.798 63.9535 194.133 63.6183C194.468 63.2832 194.636 62.8921 194.636 62.4173V58.4789C194.636 58.2276 194.72 58.032 194.887 57.8644C195.055 57.6969 195.278 57.6131 195.502 57.6131H195.53C195.781 57.6131 195.977 57.6969 196.144 57.8644C196.312 58.032 196.396 58.2555 196.396 58.4789V62.4173C196.396 62.8921 196.563 63.2832 196.898 63.6183C197.233 63.9535 197.625 64.1211 198.099 64.1211C198.574 64.1211 198.965 63.9535 199.3 63.6183C199.636 63.2832 199.803 62.8921 199.803 62.4173V58.4789C199.803 58.2276 199.887 58.032 200.055 57.8644C200.222 57.6969 200.418 57.6131 200.669 57.6131H200.697C200.948 57.6131 201.144 57.6969 201.311 57.8644C201.479 58.032 201.563 58.2555 201.563 58.4789V62.4173C201.563 63.367 201.228 64.177 200.557 64.8753C199.887 65.5456 199.077 65.8808 198.099 65.8808C196.954 65.8808 196.088 65.4898 195.53 64.7356C194.943 65.4898 194.077 65.8808 192.932 65.8808C191.982 65.8808 191.172 65.5456 190.474 64.8753C189.804 64.2049 189.469 63.3949 189.469 62.4173V58.4789C189.469 58.2276 189.552 58.032 189.72 57.8644C189.887 57.6969 190.083 57.6131 190.334 57.6131H190.362C190.586 57.6131 190.809 57.6969 190.977 57.8644C191.144 58.032 191.228 58.2555 191.228 58.4789V62.4173Z" fill="#1A3665"/>
<path d="M216.757 57.6131C217.009 57.6131 217.204 57.6969 217.372 57.8644C217.54 58.032 217.623 58.2555 217.623 58.4789V58.5069C217.623 58.7583 217.54 58.9538 217.372 59.1214C217.204 59.289 216.981 59.3728 216.757 59.3728H216.338C215.947 59.3728 215.612 59.5124 215.333 59.7917C215.054 60.071 214.914 60.4062 214.914 60.7973V65.0428C214.914 65.2942 214.83 65.4898 214.663 65.6573C214.495 65.8249 214.299 65.9087 214.048 65.9087H214.02C213.797 65.9087 213.573 65.8249 213.406 65.6573C213.238 65.4898 213.154 65.2942 213.154 65.0428V60.7973C213.154 59.9314 213.462 59.1772 214.076 58.5627C214.691 57.9482 215.445 57.641 216.311 57.641H216.757V57.6131Z" fill="#1A3665"/>
<path d="M219.663 56.6913C219.383 56.6913 219.16 56.5796 218.964 56.3841C218.769 56.1886 218.657 55.9372 218.657 55.6579C218.657 55.3786 218.769 55.1551 218.964 54.9596C219.16 54.7641 219.411 54.6523 219.69 54.6523C219.97 54.6523 220.193 54.7641 220.389 54.9596C220.584 55.1551 220.696 55.3786 220.696 55.6579C220.696 55.9372 220.584 56.1886 220.389 56.3841C220.165 56.5796 219.914 56.6913 219.663 56.6913ZM219.663 57.641C219.914 57.641 220.109 57.7248 220.277 57.8924C220.445 58.06 220.528 58.2834 220.528 58.5069V65.0428C220.528 65.2942 220.445 65.4898 220.277 65.6573C220.109 65.8249 219.914 65.9087 219.663 65.9087H219.635C219.383 65.9087 219.188 65.8249 219.02 65.6573C218.852 65.4898 218.769 65.2942 218.769 65.0428V58.5069C218.769 58.2555 218.852 58.06 219.02 57.8924C219.188 57.7248 219.411 57.641 219.663 57.641Z" fill="#1A3665"/>
<path d="M224.076 65.0428C224.076 65.2942 223.992 65.4898 223.824 65.6573C223.657 65.8249 223.461 65.9087 223.21 65.9087H223.182C222.958 65.9087 222.735 65.8249 222.567 65.6573C222.4 65.4898 222.316 65.2942 222.316 65.0428V61.1045C222.316 60.1548 222.651 59.3169 223.349 58.6465C224.02 57.9762 224.858 57.6131 225.807 57.6131C226.757 57.6131 227.567 57.9483 228.265 58.6465C228.936 59.3169 229.299 60.1548 229.299 61.1045V65.0428C229.299 65.2942 229.215 65.4898 229.047 65.6573C228.88 65.8249 228.684 65.9087 228.433 65.9087H228.405C228.154 65.9087 227.958 65.8249 227.79 65.6573C227.623 65.4898 227.539 65.2942 227.539 65.0428V61.1045C227.539 60.6297 227.372 60.2107 227.036 59.8755C226.701 59.5403 226.282 59.3728 225.807 59.3728C225.333 59.3728 224.914 59.5403 224.578 59.8755C224.243 60.2107 224.076 60.6017 224.076 61.1045V65.0428Z" fill="#1A3665"/>
<path d="M234.718 67.1377C235.304 67.1377 235.863 66.9143 236.338 66.4394C236.84 65.9646 237.092 65.406 237.092 64.7635C236.533 65.5456 235.751 65.9367 234.718 65.9367C233.572 65.9367 232.595 65.5177 231.785 64.7077C230.975 63.8977 230.584 62.9201 230.584 61.7749C230.584 60.6297 231.003 59.6521 231.813 58.8421C232.623 58.032 233.6 57.641 234.746 57.641C235.891 57.641 236.868 58.06 237.678 58.8421C238.488 59.6521 238.907 60.6297 238.907 61.7749V64.7356C238.907 65.8529 238.46 66.8305 237.595 67.6684C236.757 68.4784 235.807 68.8695 234.746 68.8695C233.126 68.8695 231.924 68.227 231.114 66.9701C231.031 66.8305 230.975 66.6629 230.975 66.5232C230.975 66.4394 231.003 66.3277 231.031 66.2439C231.114 65.9646 231.282 65.797 231.561 65.6853H231.589C231.701 65.6294 231.813 65.6294 231.924 65.6294C232.204 65.6294 232.427 65.7691 232.595 66.0204C233.042 66.7746 233.74 67.1377 234.718 67.1377ZM237.092 61.7469C237.092 61.1045 236.84 60.5459 236.393 60.099C235.947 59.6521 235.388 59.4007 234.718 59.4007C234.047 59.4007 233.489 59.6241 233.014 60.099C232.539 60.5738 232.315 61.1324 232.315 61.7749C232.315 62.4452 232.539 63.0039 233.014 63.4787C233.489 63.9256 234.047 64.177 234.718 64.177C235.388 64.177 235.947 63.9535 236.393 63.4787C236.868 63.0039 237.092 62.4452 237.092 61.7749V61.7469Z" fill="#1A3665"/>
<path d="M246.616 65.0708C246.616 65.3222 246.533 65.5177 246.365 65.6853C246.197 65.8529 246.002 65.9367 245.751 65.9367H245.723C245.499 65.9367 245.276 65.8529 245.108 65.6853C244.94 65.5177 244.857 65.3222 244.857 65.0708V61.1045C244.857 60.1548 245.192 59.3448 245.862 58.6465C246.533 57.9762 247.343 57.641 248.32 57.641C249.465 57.641 250.331 58.0321 250.89 58.7862C251.476 58.0321 252.314 57.641 253.46 57.641C254.409 57.641 255.219 57.9762 255.918 58.6465C256.588 59.3169 256.923 60.1548 256.923 61.1045V65.0708C256.923 65.3222 256.839 65.5177 256.672 65.6853C256.504 65.8529 256.281 65.9367 256.057 65.9367H256.029C255.778 65.9367 255.582 65.8529 255.415 65.6853C255.247 65.5177 255.163 65.3222 255.163 65.0708V61.1045C255.163 60.6297 254.996 60.2386 254.661 59.9035C254.325 59.5683 253.934 59.4007 253.46 59.4007C252.985 59.4007 252.594 59.5683 252.259 59.9035C251.923 60.2386 251.756 60.6297 251.756 61.1045V65.0708C251.756 65.3222 251.672 65.5177 251.504 65.6853C251.337 65.8529 251.141 65.9367 250.89 65.9367H250.862C250.611 65.9367 250.415 65.8529 250.247 65.6853C250.08 65.5177 249.996 65.3222 249.996 65.0708V61.1045C249.996 60.6297 249.829 60.2386 249.493 59.9035C249.158 59.5683 248.767 59.4007 248.292 59.4007C247.817 59.4007 247.426 59.5683 247.091 59.9035C246.756 60.2386 246.588 60.6297 246.588 61.1045L246.616 65.0708Z" fill="#E45725"/>
<path d="M262.37 57.6689C263.515 57.6689 264.493 58.0879 265.303 58.8979C266.113 59.7079 266.504 60.6855 266.504 61.8307C266.504 62.9759 266.085 63.9535 265.275 64.7635C264.465 65.5735 263.487 65.9646 262.342 65.9646C261.197 65.9646 260.219 65.5456 259.409 64.7356C258.599 63.9256 258.208 62.948 258.208 61.8028C258.208 60.6576 258.627 59.68 259.437 58.87C260.275 58.06 261.253 57.6689 262.37 57.6689ZM262.37 59.4565C261.699 59.4565 261.141 59.68 260.666 60.1548C260.191 60.6297 259.968 61.1883 259.968 61.8587C259.968 62.529 260.191 63.0876 260.666 63.5345C261.141 64.0094 261.699 64.2328 262.37 64.2328C263.04 64.2328 263.599 64.0094 264.046 63.5345C264.521 63.0597 264.744 62.5011 264.744 61.8587C264.744 61.1883 264.521 60.6297 264.046 60.1548C263.599 59.68 263.04 59.4565 262.37 59.4565Z" fill="#E45725"/>
<path d="M271.42 57.6689C271.671 57.6689 271.866 57.7527 272.034 57.9203C272.202 58.0879 272.285 58.3114 272.285 58.5348V58.5627C272.285 58.8141 272.202 59.0096 272.034 59.1772C271.866 59.3448 271.643 59.4286 271.42 59.4286H271.001C270.61 59.4286 270.274 59.5683 269.995 59.8476C269.716 60.1269 269.576 60.4621 269.576 60.8531V65.0987C269.576 65.3501 269.492 65.5456 269.325 65.7132C269.157 65.8808 268.962 65.9646 268.71 65.9646H268.682C268.459 65.9646 268.235 65.8808 268.068 65.7132C267.9 65.5456 267.816 65.3501 267.816 65.0987V60.8531C267.816 59.9872 268.124 59.2331 268.738 58.6186C269.353 58.0041 270.107 57.6969 270.973 57.6969L271.42 57.6689Z" fill="#E45725"/>
<path d="M280.972 60.6855C281 60.8252 281 60.9369 281 61.0766C280.972 61.1883 280.944 61.2721 280.888 61.3838C280.749 61.6073 280.581 61.7469 280.33 61.8028C279.603 61.9704 278.626 62.2218 277.425 62.529C275.944 62.8921 275.051 63.1156 274.799 63.1714C275.078 63.7021 275.609 64.0373 276.391 64.2049C276.922 64.2887 277.425 64.2328 277.9 64.0094C278.374 63.7859 278.737 63.4508 278.989 63.0038C279.212 62.6407 279.52 62.4732 279.939 62.5569C280.246 62.6128 280.469 62.7804 280.581 63.0597C280.665 63.2273 280.693 63.4228 280.665 63.5904C280.637 63.7021 280.609 63.7859 280.553 63.8977C280.106 64.6797 279.492 65.2663 278.682 65.6294C277.844 66.0205 276.978 66.1322 276.084 65.9646C274.939 65.7411 274.017 65.1546 273.347 64.177C272.676 63.1994 272.453 62.138 272.648 60.9649C272.872 59.8197 273.458 58.8979 274.436 58.2276C275.414 57.5572 276.475 57.3338 277.648 57.5293C278.486 57.6969 279.212 58.06 279.827 58.6465C280.385 59.2052 280.776 59.8755 280.972 60.6855ZM277.257 59.3169C276.587 59.2052 275.972 59.3169 275.414 59.7079C274.855 60.099 274.52 60.6297 274.408 61.3V61.3559L278.821 60.2666C278.542 59.7917 278.011 59.4565 277.257 59.3169Z" fill="#E45725"/>
</svg>
