<svg width="921" height="705" viewBox="0 0 921 705" fill="none" xmlns="http://www.w3.org/2000/svg">
<path d="M177.789 241.695C177.789 241.695 98.6138 293.306 146.735 296.076C181.345 298.09 252.698 270.899 298.449 278.704C344.2 286.509 174.234 465.01 261.943 465.01C349.652 465.01 463.437 295.824 483.113 348.443C483.113 348.443 423.376 578.808 493.069 541.043C562.762 503.279 766.864 193.104 853.388 235.652C927.823 272.41 792.229 607.258 920 449.149" stroke="#2A1E17" stroke-width="0.7222" stroke-miterlimit="10" stroke-linecap="round" stroke-linejoin="round"/>
<path d="M399.433 41.5413H349.178C347.282 41.5413 345.622 39.7789 345.622 37.7648V3.77647C345.622 1.76235 347.282 -7.62939e-06 349.178 -7.62939e-06H399.433C401.33 -7.62939e-06 402.989 1.76235 402.989 3.77647V38.0166C402.989 40.0307 401.567 41.5413 399.433 41.5413Z" fill="#F9F9F8"/>
<path d="M354.867 37.0095H376.913C377.624 37.0095 378.098 36.0024 377.387 35.4989L367.194 25.1765C366.246 24.4212 365.061 24.4212 364.112 25.1765L353.919 35.4989C353.682 36.0024 354.156 37.0095 354.867 37.0095Z" fill="#9FCA78"/>
<path d="M375.491 30.4636L381.417 36.7577H398.248V25.68C398.248 25.4282 398.248 25.1765 398.011 25.1765L389.714 16.3647C388.766 15.3576 387.343 15.3576 386.632 16.3647C383.551 19.8894 377.387 27.1906 375.491 29.4565C375.017 29.7082 375.017 30.2118 375.491 30.4636Z" fill="#9FCA78"/>
<path d="M363.638 17.8753C365.995 17.8753 367.905 15.8464 367.905 13.3436C367.905 10.8407 365.995 8.81178 363.638 8.81178C361.281 8.81178 359.371 10.8407 359.371 13.3436C359.371 15.8464 361.281 17.8753 363.638 17.8753Z" fill="#FFE179"/>
<path d="M186.797 567.227H117.341C114.733 567.227 112.363 564.961 112.363 561.94V538.022C112.363 535.253 114.496 532.735 117.341 532.735H186.797C189.405 532.735 191.775 535.001 191.775 538.022V561.94C191.538 564.709 189.405 567.227 186.797 567.227Z" fill="#FFE179"/>
<path d="M160.01 553.884H181.582" stroke="#2A1E17" stroke-width="0.7222" stroke-miterlimit="10" stroke-linecap="round" stroke-linejoin="round"/>
<path d="M160.01 547.086H181.582" stroke="#2A1E17" stroke-width="0.7222" stroke-miterlimit="10" stroke-linecap="round" stroke-linejoin="round"/>
<path d="M149.343 554.891H128.483C126.112 554.891 124.216 552.876 124.216 550.359C124.216 547.841 126.112 545.827 128.483 545.827H149.343C151.714 545.827 153.61 547.841 153.61 550.359C153.61 552.876 151.714 554.891 149.343 554.891Z" fill="#F9F8F6"/>
<path d="M699.304 645.778H637.671C635.3 645.778 633.404 643.764 633.404 641.246V599.201C633.404 596.684 635.3 594.669 637.671 594.669H699.304C701.675 594.669 703.571 596.684 703.571 599.201V641.246C703.571 643.764 701.675 645.778 699.304 645.778Z" fill="#F9F9F8"/>
<path d="M644.308 640.239H671.332C672.28 640.239 672.755 638.98 672.043 638.477L659.717 625.637C658.768 624.63 657.109 624.63 655.924 625.637L643.597 638.477C642.886 638.98 643.36 640.239 644.308 640.239Z" fill="#9FCA78"/>
<path d="M669.673 632.182L676.784 639.735H697.645V626.14C697.645 625.888 697.645 625.636 697.408 625.385L687.215 614.559C686.029 613.3 684.37 613.552 683.422 614.559C679.866 618.839 671.806 627.902 669.673 630.672C669.199 631.175 669.199 631.679 669.673 632.182Z" fill="#9FCA78"/>
<path d="M655.213 616.573C658.093 616.573 660.428 614.093 660.428 611.034C660.428 607.975 658.093 605.495 655.213 605.495C652.332 605.495 649.997 607.975 649.997 611.034C649.997 614.093 652.332 616.573 655.213 616.573Z" fill="#FFE179"/>
<path d="M599.268 399.3L595.001 435.806L568.451 668.94C568.451 668.94 549.25 702.173 544.035 703.936C538.82 705.698 517.011 670.703 517.011 670.703C517.011 670.703 518.907 625.637 528.152 523.672C530.997 492.201 536.923 453.429 540.005 432.533C544.983 398.544 546.642 391.998 546.642 391.998L599.268 399.3Z" fill="#FFE179"/>
<path d="M568.451 668.94C568.451 668.94 549.25 702.173 544.035 703.936C538.82 705.698 517.011 670.703 517.011 670.703L526.256 675.99C527.678 676.745 529.574 676.997 530.997 676.241L542.138 671.961L552.569 675.738C554.228 676.241 555.887 676.241 557.31 675.234L568.451 668.94Z" fill="white"/>
<path d="M599.268 399.3L595.001 435.806C595.001 435.806 581.726 438.575 565.37 437.568C551.621 436.561 540.005 432.533 540.005 432.533C544.983 398.544 546.642 391.998 546.642 391.998C546.642 391.998 556.362 394.013 573.903 396.278C591.445 398.544 599.268 399.3 599.268 399.3Z" fill="#DED7D0"/>
<path d="M582.2 359.772C593.105 361.283 599.031 363.297 600.453 367.325C601.876 371.354 599.268 399.3 599.268 399.3C599.268 399.3 552.806 398.544 546.642 391.998C540.479 385.201 546.879 367.577 550.198 364.053C554.939 359.269 559.443 356.5 582.2 359.772Z" fill="#FF3D43"/>
<path d="M517.011 670.703C517.011 670.703 527.915 689.585 536.686 698.9C539.531 701.922 542.138 703.936 544.035 703.936C545.931 703.936 548.302 701.67 551.146 698.397C558.969 688.578 568.451 668.94 568.451 668.94" stroke="#2A1E17" stroke-width="0.7222" stroke-miterlimit="10" stroke-linecap="round" stroke-linejoin="round"/>
<path d="M551.146 698.397C548.539 701.67 545.931 703.936 544.035 703.936C542.139 703.936 539.531 701.922 536.686 698.9C536.686 698.9 538.82 696.131 543.798 696.635C548.776 697.138 551.146 698.397 551.146 698.397Z" fill="#2A1E17"/>
<path d="M553.043 675.486C553.043 675.486 571.296 506.3 577.222 468.787" stroke="#2A1E17" stroke-width="0.7222" stroke-miterlimit="10" stroke-linecap="round" stroke-linejoin="round"/>
<path d="M531.945 650.058L550.909 444.366" stroke="#2A1E17" stroke-width="0.7222" stroke-miterlimit="10" stroke-linecap="round" stroke-linejoin="round"/>
<path d="M531.234 676.241L542.375 671.961L553.991 676.493" stroke="#2A1E17" stroke-width="0.7222" stroke-miterlimit="10" stroke-linecap="round" stroke-linejoin="round"/>
<path d="M549.487 434.295C549.487 434.295 564.421 440.337 595.001 435.806" stroke="#2A1E17" stroke-width="0.7222" stroke-miterlimit="10" stroke-linecap="round" stroke-linejoin="round"/>
<path d="M570.585 416.168C570.585 416.168 591.208 417.679 601.402 415.916" stroke="#2A1E17" stroke-width="0.7222" stroke-miterlimit="10" stroke-linecap="round" stroke-linejoin="round"/>
<path d="M550.909 395.523C550.909 395.523 565.843 400.81 591.919 399.3" stroke="#2A1E17" stroke-width="0.7222" stroke-miterlimit="10" stroke-linecap="round" stroke-linejoin="round"/>
<path d="M540.716 505.545L614.203 463.752C616.573 462.493 619.418 463.751 620.129 466.521L631.981 523.42L677.97 544.065C680.814 545.323 681.288 549.603 678.681 551.366L610.173 602.474C608.987 603.229 607.565 603.481 606.143 602.978L553.28 578.053L539.057 510.328C538.346 508.566 539.294 506.552 540.716 505.545Z" fill="#F9F8F6" stroke="#2A1E17" stroke-width="0.7222" stroke-miterlimit="10" stroke-linecap="round" stroke-linejoin="round"/>
<path d="M561.34 572.011L628.189 527.448" stroke="#2A1E17" stroke-width="0.7222" stroke-miterlimit="10" stroke-linecap="round" stroke-linejoin="round"/>
<path d="M573.903 579.06L638.382 534.498" stroke="#2A1E17" stroke-width="0.7222" stroke-miterlimit="10" stroke-linecap="round" stroke-linejoin="round"/>
<path d="M586.705 585.606L651.894 538.526" stroke="#2A1E17" stroke-width="0.7222" stroke-miterlimit="10" stroke-linecap="round" stroke-linejoin="round"/>
<path d="M546.168 511.335L557.31 562.695L624.87 520.147L614.439 473.067L546.168 511.335Z" fill="#9FCA78"/>
<path d="M629.137 580.571C626.766 578.808 615.388 572.011 615.388 572.011L640.278 554.135L653.553 562.192L629.137 580.571Z" fill="#2A1E17"/>
<path d="M361.505 387.718C361.505 387.718 309.116 492.453 308.405 512.846C307.694 533.239 378.573 645.022 383.551 650.813L411.523 639.987L408.678 565.968L392.559 520.147L408.678 489.432L407.493 445.624L361.505 387.718Z" fill="#F9F8F6"/>
<path d="M398.485 431.526L407.019 443.862C407.019 443.862 408.204 629.917 412.471 656.604L467.941 653.079C467.941 653.079 489.987 424.224 491.41 395.523C491.41 395.523 433.569 413.147 360.794 386.46L398.485 431.526Z" fill="#F9F8F6"/>
<path d="M378.098 393.509C378.098 393.509 419.82 416.168 448.266 415.161C476.712 414.154 492.595 395.271 492.595 395.271L378.098 393.509Z" fill="#2A1E17"/>
<path d="M514.878 375.885C512.27 376.892 505.633 381.676 503.499 379.662C501.366 377.899 501.366 373.619 507.055 369.843C512.744 366.067 524.123 358.01 525.545 358.765C526.967 359.521 514.878 375.885 514.878 375.885Z" fill="#FBCAC4"/>
<path d="M347.756 181.271C347.756 181.271 384.973 188.572 429.065 203.93L463.2 209.217C463.2 209.217 521.278 218.532 538.346 239.177C538.346 239.177 561.577 266.619 567.029 284.998L520.804 311.182L507.055 286.76L491.647 395.523C491.647 395.523 431.435 420.448 340.881 382.683L364.113 249.751C364.113 249.751 335.429 244.212 330.214 237.666C330.214 237.666 337.563 200.153 347.756 181.271Z" fill="#EF631D"/>
<path d="M360.319 62.4378C356.764 60.6754 352.26 67.2213 348.704 73.2637C345.148 79.306 337.562 92.6496 337.562 92.6496C337.562 92.6496 310.539 113.294 288.73 140.485C275.455 157.101 264.076 171.704 257.202 192.097C257.202 192.097 287.307 222.812 331.636 232.883L347.993 181.271L325.236 173.718C325.236 173.718 362.69 124.876 367.431 120.595C367.431 120.595 370.276 121.351 381.417 119.337C392.322 117.323 397.063 115.56 397.063 113.294C397.063 111.028 396.114 108.007 383.077 108.763L380.469 105.238C380.469 105.238 400.618 83.586 402.041 80.8166C403.463 78.0472 400.618 76.7884 392.559 79.306C384.499 81.8237 380.469 85.8519 380.469 85.8519C380.469 85.8519 385.921 77.5436 389.714 71.5013C393.507 65.4589 391.61 63.9483 389.477 63.9483C387.343 63.9483 373.12 76.0331 369.328 82.0755C369.328 82.0755 381.417 60.9271 378.81 58.913C376.202 56.8989 363.638 69.2354 357.001 78.8025C356.764 79.0543 363.401 64.2001 360.319 62.4378Z" fill="#FBCAC4"/>
<path d="M256.965 192.097C256.965 192.097 287.07 222.812 331.399 232.883" stroke="#2A1E17" stroke-width="0.7222" stroke-miterlimit="10" stroke-linecap="round" stroke-linejoin="round"/>
<path d="M528.153 426.49C524.123 428.756 516.063 413.902 514.167 407.104C512.27 400.307 512.744 382.431 513.93 375.634C514.878 370.095 517.248 365.06 524.834 357.758C528.153 354.485 533.131 349.954 538.82 345.925C538.82 345.925 525.071 319.994 520.093 309.671L544.509 296.328L566.792 284.243C566.792 284.243 597.846 341.645 594.053 347.94C590.26 354.234 550.199 375.885 550.199 375.885L552.332 389.229C552.332 389.229 565.37 405.594 563.948 408.111C562.525 410.629 552.095 405.342 547.117 398.796C547.117 398.796 556.599 415.664 553.28 418.182C549.962 420.7 541.665 413.902 536.45 405.846C536.45 405.846 543.324 420.448 540.716 423.721C538.109 426.994 529.338 418.182 525.782 408.111C525.782 408.111 526.493 413.399 527.442 418.434C527.916 422.21 529.338 425.987 528.153 426.49Z" fill="#FBCAC4"/>
<path d="M519.856 309.923L544.272 296.579L566.318 284.243" stroke="#2A1E17" stroke-width="0.7222" stroke-miterlimit="10" stroke-linecap="round" stroke-linejoin="round"/>
<path d="M593.579 348.191C589.786 354.485 549.724 376.137 549.724 376.137L551.858 389.481C551.858 389.481 564.896 405.845 563.473 408.363C563.473 408.363 559.444 412.895 547.591 399.803" stroke="#2A1E17" stroke-width="0.7222" stroke-miterlimit="10" stroke-linecap="round" stroke-linejoin="round"/>
<path d="M513.692 375.885C514.641 370.347 517.011 365.311 524.597 358.01" stroke="#2A1E17" stroke-width="0.7222" stroke-miterlimit="10" stroke-linecap="round" stroke-linejoin="round"/>
<path d="M430.724 137.716C415.079 183.537 427.642 195.622 427.642 195.622L429.065 203.93C429.065 203.93 428.828 218.029 440.917 220.546C455.615 223.819 463.437 209.217 463.437 209.217L466.756 201.412C466.756 201.412 482.638 193.356 482.876 148.793C482.876 148.793 477.423 138.723 457.985 135.198C438.31 132.177 430.724 137.716 430.724 137.716Z" fill="#FBCAC4"/>
<path d="M464.385 138.723L482.639 149.045L478.135 171.452L481.69 171.704L488.802 149.8C488.802 149.8 501.603 138.219 487.143 127.645C477.186 120.344 471.971 128.904 471.971 128.904L464.385 138.723Z" fill="#2A1E17"/>
<path d="M442.34 118.833C437.599 117.071 419.583 119.84 425.035 140.485C425.035 140.485 423.376 153.073 423.376 158.864C423.376 165.41 427.642 164.403 427.642 160.878C427.642 160.626 431.909 139.478 431.909 139.478L443.051 136.457L442.34 118.833Z" fill="#2A1E17"/>
<path d="M449.925 107.504C440.68 111.28 439.021 136.457 439.021 136.457L466.993 139.226C466.993 139.226 478.372 126.386 474.579 118.078C471.023 110.021 462.489 102.468 449.925 107.504Z" fill="#2A1E17"/>
<path d="M427.168 159.619C426.694 155.087 423.139 151.563 421.005 154.08C419.109 156.346 416.975 170.445 423.376 171.704C423.376 171.704 428.117 168.179 427.168 159.619Z" fill="#FBCAC4"/>
<path d="M477.661 183.789C482.402 185.551 488.328 177.998 487.143 171.956C485.957 165.913 481.69 164.906 480.031 169.69C478.372 174.221 477.661 183.789 477.661 183.789Z" fill="#FBCAC4"/>
<path d="M538.583 346.177C538.583 346.177 551.621 333.085 562.762 332.078" stroke="#2A1E17" stroke-width="0.7222" stroke-miterlimit="10" stroke-linecap="round" stroke-linejoin="round"/>
<path d="M362.927 105.238C362.927 105.238 371.698 93.9084 382.84 109.014" stroke="#2A1E17" stroke-width="0.7222" stroke-miterlimit="10" stroke-linecap="round" stroke-linejoin="round"/>
<path d="M306.746 166.417C306.746 166.417 317.413 164.403 324.999 173.718" stroke="#2A1E17" stroke-width="0.7222" stroke-miterlimit="10" stroke-linecap="round" stroke-linejoin="round"/>
<path d="M364.112 250.003C364.112 250.003 368.379 224.575 376.202 210.727" stroke="#2A1E17" stroke-width="0.7222" stroke-miterlimit="10" stroke-linecap="round" stroke-linejoin="round"/>
<path d="M546.643 399.048C546.643 399.048 556.125 415.413 552.806 418.434C552.806 418.434 545.457 422.965 535.975 406.097C535.975 406.097 544.983 422.462 540.242 423.973C535.738 425.483 525.308 408.363 525.308 408.363C525.308 408.363 530.76 421.958 528.153 426.742C525.545 431.274 514.167 407.356 514.167 407.356" stroke="#2A1E17" stroke-width="0.7222" stroke-miterlimit="10" stroke-linecap="round" stroke-linejoin="round"/>
<path d="M425.509 155.339L423.138 171.956C423.138 171.956 416.975 192.349 427.405 195.873C439.258 199.65 455.852 204.685 464.386 203.93C470.786 203.426 477.186 200.405 477.423 184.04L481.216 167.927C481.216 167.927 479.794 167.676 477.186 171.704C473.157 177.494 467.941 191.593 460.119 191.342C453.481 191.09 440.443 188.572 434.28 182.026C431.672 179.257 428.828 165.158 428.117 159.367C427.405 154.836 425.509 155.339 425.509 155.339Z" fill="#2A1E17"/>
<path d="M361.031 386.46C361.031 386.46 308.642 491.194 307.931 511.587C307.22 531.98 378.099 643.764 383.077 649.554L411.049 638.728" stroke="#2A1E17" stroke-width="0.7222" stroke-miterlimit="10" stroke-linecap="round" stroke-linejoin="round"/>
<path d="M398.485 431.525L407.019 443.862C407.019 443.862 407.256 464.507 407.493 487.166C408.204 543.057 409.389 637.721 412.471 656.855L467.941 653.331C467.941 653.331 489.987 424.476 491.41 395.775" stroke="#2A1E17" stroke-width="0.7222" stroke-miterlimit="10" stroke-linecap="round" stroke-linejoin="round"/>
<path d="M409.39 565.465L392.322 518.636L407.019 488.928" stroke="#2A1E17" stroke-width="0.7222" stroke-miterlimit="10" stroke-linecap="round" stroke-linejoin="round"/>
<path d="M390.662 646.785L393.033 662.394L384.499 668.688C384.499 668.688 369.328 676.997 375.491 682.535C381.654 688.074 412.471 683.542 412.471 683.542L411.049 638.728L390.662 646.785Z" fill="#2A1E17" stroke="#2A1E17" stroke-width="0.7222" stroke-miterlimit="10" stroke-linecap="round" stroke-linejoin="round"/>
<path d="M413.182 685.053L483.824 686.312C488.328 686.06 490.224 679.766 486.431 676.997C485.483 676.241 484.298 675.486 482.876 674.731C476.001 670.954 456.326 666.674 454.192 666.926C455.852 661.639 455.14 657.863 455.615 653.583L412.708 657.107L413.182 685.053Z" fill="#2A1E17"/>
<path d="M420.768 203.174C420.768 209.72 421.242 223.819 438.784 227.847C456.326 231.876 464.86 222.812 469.127 214.756" stroke="#2A1E17" stroke-width="0.7222" stroke-miterlimit="10" stroke-linecap="round" stroke-linejoin="round"/>
<path d="M507.055 287.012L503.736 251.513" stroke="#2A1E17" stroke-width="0.7222" stroke-miterlimit="10" stroke-linecap="round" stroke-linejoin="round"/>
<path d="M380.943 510.076C384.736 511.839 388.766 514.608 392.322 518.636" stroke="#2A1E17" stroke-width="0.7222" stroke-miterlimit="10" stroke-linecap="round" stroke-linejoin="round"/>
<path d="M407.73 487.166C407.493 464.507 407.256 443.862 407.256 443.862L398.722 431.526" fill="#2A1E17"/>
<path d="M528.627 327.295C533.605 336.862 538.583 346.177 538.583 346.177C541.427 343.911 542.85 341.897 546.406 338.624C546.406 338.624 541.665 337.869 537.872 334.848C531.945 330.316 526.493 323.518 528.627 327.295Z" fill="#2A1E17"/>
<path d="M454.193 666.674C454.193 666.674 445.185 659.373 433.332 666.171" stroke="white" stroke-width="0.7222" stroke-miterlimit="10" stroke-linecap="round" stroke-linejoin="round"/>
<path d="M396.589 663.15C396.589 663.15 405.123 658.366 412.471 663.15" stroke="white" stroke-width="0.7222" stroke-miterlimit="10" stroke-linecap="round" stroke-linejoin="round"/>
<path d="M412.945 660.632L413.893 679.011" stroke="white" stroke-width="0.7222" stroke-miterlimit="10" stroke-linecap="round" stroke-linejoin="round"/>
<path d="M453.244 159.116L448.503 169.941L456.089 171.452" stroke="#2A1E17" stroke-width="0.7222" stroke-miterlimit="10" stroke-linecap="round" stroke-linejoin="round"/>
<path d="M435.702 190.083C435.702 190.083 440.917 178.501 443.762 177.243C446.844 175.984 457.274 177.998 459.408 179.76C461.541 181.774 463.2 194.866 463.2 194.866L457.748 195.622L455.378 184.544L445.184 182.026L441.391 191.342L435.702 190.083Z" fill="#2A1E17"/>
<path d="M437.599 155.339C437.599 155.339 439.969 151.059 444.236 154.836" stroke="#2A1E17" stroke-width="0.7222" stroke-miterlimit="10" stroke-linecap="round" stroke-linejoin="round"/>
<path d="M466.282 159.871C466.282 159.871 469.838 157.353 471.734 162.389" stroke="#2A1E17" stroke-width="0.7222" stroke-miterlimit="10" stroke-linecap="round" stroke-linejoin="round"/>
<path d="M768.05 164.151H674.888C672.754 164.151 671.095 162.389 671.095 160.123V141.744C671.095 139.478 672.754 137.716 674.888 137.716H768.05C770.183 137.716 771.842 139.478 771.842 141.744V160.123C771.842 162.389 770.183 164.151 768.05 164.151Z" fill="#FF835C"/>
<path d="M721.113 153.829H764.02" stroke="#2A1E17" stroke-width="0.7222" stroke-miterlimit="10" stroke-linecap="round" stroke-linejoin="round"/>
<path d="M721.113 148.541H764.02" stroke="#2A1E17" stroke-width="0.7222" stroke-miterlimit="10" stroke-linecap="round" stroke-linejoin="round"/>
<path d="M712.816 154.584H683.422C681.526 154.584 680.103 153.073 680.103 151.059C680.103 149.045 681.526 147.534 683.422 147.534H712.816C714.713 147.534 716.135 149.045 716.135 151.059C716.135 153.073 714.713 154.584 712.816 154.584Z" fill="#F9F8F6"/>
<path d="M303.19 685.557H509.188" stroke="#2A1E17" stroke-width="0.7222" stroke-miterlimit="10" stroke-linecap="round" stroke-linejoin="round"/>
<path d="M494.017 91.6425L493.069 81.8237H478.135C473.394 81.8237 469.364 77.5437 469.364 72.5084V39.5271C469.364 34.4918 473.394 30.2118 478.135 30.2118H521.278C526.019 30.2118 530.049 34.4918 530.049 39.5271V72.2566C530.049 77.2919 526.019 81.5719 521.278 81.5719H504.21L494.017 91.6425Z" fill="white" stroke="#2A1E17" stroke-width="0.7222" stroke-miterlimit="10" stroke-linecap="round" stroke-linejoin="round"/>
<path d="M490.461 69.2354H482.402V49.5977H490.224" fill="#7CA4FF"/>
<path d="M493.543 37.2613C495.202 37.2613 496.625 38.7719 496.625 40.5342V47.8354H507.292C509.9 47.8354 512.033 50.1013 512.033 52.8707V63.9484C512.033 66.7178 509.9 68.9837 507.292 68.9837H490.224V40.2825C490.461 38.7719 491.884 37.2613 493.543 37.2613Z" stroke="#2A1E17" stroke-width="0.7222" stroke-miterlimit="10" stroke-linecap="round" stroke-linejoin="round"/>
<path d="M215.006 144.513H129.431C129.431 140.737 132.275 137.716 135.831 137.716H208.843C212.162 137.716 215.006 140.737 215.006 144.513Z" fill="#FF3D43"/>
<path d="M215.006 144.513H129.431V215.763C129.431 217.777 131.09 219.539 132.986 219.539H211.451C213.347 219.539 215.006 217.777 215.006 215.763V144.513Z" fill="white" stroke="#2A1E17" stroke-width="0.7222" stroke-miterlimit="10" stroke-linecap="round" stroke-linejoin="round"/>
<path d="M178.501 155.087H138.202V160.626H178.501V155.087Z" fill="#2A1E17"/>
<path d="M139.15 166.669H204.102" stroke="#2A1E17" stroke-width="0.7222" stroke-miterlimit="10" stroke-linecap="round" stroke-linejoin="round"/>
<path d="M153.61 178.25H201.495" stroke="#2A1E17" stroke-width="0.7222" stroke-miterlimit="10" stroke-linecap="round" stroke-linejoin="round"/>
<path d="M153.61 190.335H201.495" stroke="#2A1E17" stroke-width="0.7222" stroke-miterlimit="10" stroke-linecap="round" stroke-linejoin="round"/>
<path d="M153.61 201.916H201.495" stroke="#2A1E17" stroke-width="0.7222" stroke-miterlimit="10" stroke-linecap="round" stroke-linejoin="round"/>
<path d="M144.839 182.026C146.41 182.026 147.684 180.674 147.684 179.005C147.684 177.337 146.41 175.984 144.839 175.984C143.268 175.984 141.994 177.337 141.994 179.005C141.994 180.674 143.268 182.026 144.839 182.026Z" fill="#FF3D43"/>
<path d="M144.839 193.859C146.41 193.859 147.684 192.507 147.684 190.838C147.684 189.17 146.41 187.817 144.839 187.817C143.268 187.817 141.994 189.17 141.994 190.838C141.994 192.507 143.268 193.859 144.839 193.859Z" fill="#FF3D43"/>
<path d="M144.839 205.189C146.41 205.189 147.684 203.836 147.684 202.167C147.684 200.499 146.41 199.146 144.839 199.146C143.268 199.146 141.994 200.499 141.994 202.167C141.994 203.836 143.268 205.189 144.839 205.189Z" fill="#FF3D43"/>
<path d="M604.483 229.61L611.595 231.12L611.358 238.422L619.418 239.429L619.181 247.989" stroke="#2A1E17" stroke-width="0.7222" stroke-miterlimit="10" stroke-linecap="round" stroke-linejoin="round"/>
<path d="M116.156 473.319L120.897 480.116L127.297 476.088L131.801 483.389" stroke="#2A1E17" stroke-width="0.7222" stroke-miterlimit="10" stroke-linecap="round" stroke-linejoin="round"/>
<path d="M894.398 44.3107L899.14 51.1083L905.54 47.0801L910.044 54.3813" stroke="#2A1E17" stroke-width="0.7222" stroke-miterlimit="10" stroke-linecap="round" stroke-linejoin="round"/>
<path d="M137.253 80.8167L141.994 87.6143L148.395 83.586L153.136 90.8873" stroke="#2A1E17" stroke-width="0.7222" stroke-miterlimit="10" stroke-linecap="round" stroke-linejoin="round"/>
<path d="M755.723 575.032L761.175 581.326L767.101 576.291L772.317 583.088" stroke="#2A1E17" stroke-width="0.7222" stroke-miterlimit="10" stroke-linecap="round" stroke-linejoin="round"/>
<path d="M264.551 160.123L256.965 162.64L258.624 170.445L250.564 172.711" stroke="#2A1E17" stroke-width="0.7222" stroke-miterlimit="10" stroke-linecap="round" stroke-linejoin="round"/>
<path d="M331.873 392.502H211.451C208.843 392.502 206.472 390.236 206.472 387.215V363.297C206.472 360.528 208.606 358.01 211.451 358.01H331.873C334.481 358.01 336.851 360.276 336.851 363.297V387.215C336.851 390.236 334.481 392.502 331.873 392.502Z" fill="#7CA4FF"/>
<path d="M271.188 379.158H326.658" stroke="#2A1E17" stroke-width="0.7222" stroke-miterlimit="10" stroke-linecap="round" stroke-linejoin="round"/>
<path d="M271.188 372.361H326.658" stroke="#2A1E17" stroke-width="0.7222" stroke-miterlimit="10" stroke-linecap="round" stroke-linejoin="round"/>
<path d="M260.52 380.165H222.355C219.985 380.165 218.088 378.151 218.088 375.634C218.088 373.116 219.985 371.102 222.355 371.102H260.52C262.891 371.102 264.787 373.116 264.787 375.634C265.024 378.151 262.891 380.165 260.52 380.165Z" fill="#F9F8F6"/>
<path d="M731.543 461.234H686.503C684.844 461.234 683.659 459.975 683.659 458.213V431.022C683.659 429.26 684.844 428.001 686.503 428.001H731.543C733.203 428.001 734.388 429.26 734.388 431.022V458.213C734.388 459.723 732.966 461.234 731.543 461.234Z" fill="#FFE179"/>
<path d="M690.296 433.791L709.26 448.394L729.41 433.791" stroke="#2A1E17" stroke-width="0.7222" stroke-miterlimit="10" stroke-linecap="round" stroke-linejoin="round"/>
<path d="M688.874 455.695L701.912 443.107" stroke="#2A1E17" stroke-width="0.7222" stroke-miterlimit="10" stroke-linecap="round" stroke-linejoin="round"/>
<path d="M718.505 442.1L730.121 457.206" stroke="#2A1E17" stroke-width="0.7222" stroke-miterlimit="10" stroke-linecap="round" stroke-linejoin="round"/>
<path d="M110.229 399.3L81.3091 400.307C80.3609 400.307 79.4126 399.551 79.4126 398.544L78.9386 381.173C78.9386 380.165 79.6497 379.158 80.5979 379.158L109.518 378.151C110.467 378.151 111.415 378.907 111.415 379.914L111.889 397.285C112.126 398.544 111.178 399.3 110.229 399.3Z" fill="white" stroke="#2A1E17" stroke-width="0.7222" stroke-miterlimit="10" stroke-linecap="round" stroke-linejoin="round"/>
<path d="M83.2056 382.683L95.5323 391.495L108.333 381.928" stroke="#2A1E17" stroke-width="0.7222" stroke-miterlimit="10" stroke-linecap="round" stroke-linejoin="round"/>
<path d="M82.7314 396.782L90.7912 388.222" stroke="#2A1E17" stroke-width="0.7222" stroke-miterlimit="10" stroke-linecap="round" stroke-linejoin="round"/>
<path d="M101.459 387.467L109.281 396.782" stroke="#2A1E17" stroke-width="0.7222" stroke-miterlimit="10" stroke-linecap="round" stroke-linejoin="round"/>
<path d="M302.716 685.808C286.359 685.808 277.588 646.281 288.967 647.037C300.582 647.792 313.383 685.808 302.716 685.808Z" fill="#AFCD5C"/>
<path d="M318.361 685.305C318.361 685.305 319.547 654.338 298.449 639.987C269.766 620.098 262.654 610.531 281.618 603.985C300.583 597.691 323.102 609.524 330.451 636.714C334.955 653.331 327.369 685.305 327.369 685.305" stroke="#2A1E17" stroke-width="0.7222" stroke-miterlimit="10" stroke-linecap="round" stroke-linejoin="round"/>
<path d="M281.618 603.985C281.618 603.985 305.56 615.062 313.857 629.665C327.843 654.841 324.05 685.305 324.05 685.305" stroke="#2A1E17" stroke-width="0.7222" stroke-miterlimit="10" stroke-linecap="round" stroke-linejoin="round"/>
<path d="M314.806 631.679L315.991 613.804" stroke="#2A1E17" stroke-width="0.7222" stroke-miterlimit="10" stroke-linecap="round" stroke-linejoin="round"/>
<path d="M318.598 637.47L320.969 619.846" stroke="#2A1E17" stroke-width="0.7222" stroke-miterlimit="10" stroke-linecap="round" stroke-linejoin="round"/>
<path d="M271.188 613.048H295.604" stroke="#2A1E17" stroke-width="0.7222" stroke-miterlimit="10" stroke-linecap="round" stroke-linejoin="round"/>
<path d="M311.961 653.331L323.339 660.38" stroke="#2A1E17" stroke-width="0.7222" stroke-miterlimit="10" stroke-linecap="round" stroke-linejoin="round"/>
<path d="M332.821 685.053C332.821 685.053 334.007 675.486 341.118 672.213" stroke="#2A1E17" stroke-width="0.7222" stroke-miterlimit="10" stroke-linecap="round" stroke-linejoin="round"/>
<path d="M290.152 652.576L302.953 685.053" stroke="#2A1E17" stroke-width="0.7222" stroke-miterlimit="10" stroke-linecap="round" stroke-linejoin="round"/>
<path d="M538.82 189.076C538.82 189.076 543.087 183.285 545.221 181.019C552.095 173.97 560.155 172.459 563.948 164.403C567.504 156.094 562.288 136.708 543.798 138.974C528.153 140.737 527.442 158.109 527.679 165.662C527.916 173.214 524.123 179.257 524.123 179.257C524.123 179.257 527.205 177.998 532.657 182.278C538.109 186.81 538.82 189.076 538.82 189.076Z" fill="#FFE179" stroke="#FFE179" stroke-width="0.7222" stroke-miterlimit="10"/>
<path d="M538.82 189.076C538.82 189.076 533.842 197.887 525.545 192.6C517.248 187.313 523.886 179.257 523.886 179.257C523.886 179.257 527.205 178.502 532.42 182.278C537.872 186.306 538.82 189.076 538.82 189.076Z" stroke="#2A1E17" stroke-width="0.7222" stroke-miterlimit="10" stroke-linecap="round" stroke-linejoin="round"/>
<path d="M528.627 180.012L535.027 163.144" stroke="#2A1E17" stroke-width="0.7222" stroke-miterlimit="10" stroke-linecap="round" stroke-linejoin="round"/>
<path d="M535.501 183.789L548.065 169.942" stroke="#2A1E17" stroke-width="0.7222" stroke-miterlimit="10" stroke-linecap="round" stroke-linejoin="round"/>
<path d="M535.027 164.654C535.027 164.654 538.109 167.172 542.85 163.899C542.85 163.899 541.902 171.956 546.169 171.956" stroke="#2A1E17" stroke-width="0.7222" stroke-miterlimit="10" stroke-linecap="round" stroke-linejoin="round"/>
<path d="M522.227 184.796C522.227 184.796 531.234 183.537 535.501 193.104" stroke="#2A1E17" stroke-width="0.7222" stroke-miterlimit="10" stroke-linecap="round" stroke-linejoin="round"/>
<path d="M554.703 146.779C554.703 146.779 562.051 152.066 560.392 161.13" stroke="white" stroke-width="0.7222" stroke-miterlimit="10" stroke-linecap="round" stroke-linejoin="round"/>
<path d="M572.482 271.655C574.707 271.655 576.511 269.738 576.511 267.375C576.511 265.011 574.707 263.095 572.482 263.095C570.256 263.095 568.452 265.011 568.452 267.375C568.452 269.738 570.256 271.655 572.482 271.655Z" stroke="#2A1E17" stroke-width="0.7222" stroke-miterlimit="10" stroke-linecap="round" stroke-linejoin="round"/>
<path d="M286.359 555.898C288.585 555.898 290.389 553.981 290.389 551.618C290.389 549.254 288.585 547.338 286.359 547.338C284.134 547.338 282.329 549.254 282.329 551.618C282.329 553.981 284.134 555.898 286.359 555.898Z" stroke="#2A1E17" stroke-width="0.7222" stroke-miterlimit="10" stroke-linecap="round" stroke-linejoin="round"/>
<path d="M599.98 645.023C602.205 645.023 604.009 643.106 604.009 640.743C604.009 638.379 602.205 636.463 599.98 636.463C597.754 636.463 595.95 638.379 595.95 640.743C595.95 643.106 597.754 645.023 599.98 645.023Z" stroke="#2A1E17" stroke-width="0.7222" stroke-miterlimit="10" stroke-linecap="round" stroke-linejoin="round"/>
<path d="M600.691 44.0589C602.131 44.0589 603.298 42.819 603.298 41.2895C603.298 39.76 602.131 38.5201 600.691 38.5201C599.251 38.5201 598.083 39.76 598.083 41.2895C598.083 42.819 599.251 44.0589 600.691 44.0589Z" fill="#2A1E17"/>
<path d="M839.639 378.907C841.079 378.907 842.247 377.667 842.247 376.137C842.247 374.608 841.079 373.368 839.639 373.368C838.199 373.368 837.032 374.608 837.032 376.137C837.032 377.667 838.199 378.907 839.639 378.907Z" fill="#2A1E17"/>
<path d="M885.864 623.371C888.09 623.371 889.894 621.455 889.894 619.091C889.894 616.727 888.09 614.811 885.864 614.811C883.638 614.811 881.834 616.727 881.834 619.091C881.834 621.455 883.638 623.371 885.864 623.371Z" stroke="#2A1E17" stroke-width="0.7222" stroke-miterlimit="10" stroke-linecap="round" stroke-linejoin="round"/>
<path d="M178.737 426.742C180.963 426.742 182.767 424.826 182.767 422.462C182.767 420.098 180.963 418.182 178.737 418.182C176.512 418.182 174.708 420.098 174.708 422.462C174.708 424.826 176.512 426.742 178.737 426.742Z" stroke="#2A1E17" stroke-width="0.7222" stroke-miterlimit="10" stroke-linecap="round" stroke-linejoin="round"/>
<path d="M69.6934 177.494C71.919 177.494 73.7233 175.578 73.7233 173.214C73.7233 170.851 71.919 168.934 69.6934 168.934C67.4677 168.934 65.6635 170.851 65.6635 173.214C65.6635 175.578 67.4677 177.494 69.6934 177.494Z" stroke="#2A1E17" stroke-width="0.7222" stroke-miterlimit="10" stroke-linecap="round" stroke-linejoin="round"/>
<path d="M387.818 165.662C390.043 165.662 391.847 163.745 391.847 161.382C391.847 159.018 390.043 157.101 387.818 157.101C385.592 157.101 383.788 159.018 383.788 161.382C383.788 163.745 385.592 165.662 387.818 165.662Z" stroke="#2A1E17" stroke-width="0.7222" stroke-miterlimit="10" stroke-linecap="round" stroke-linejoin="round"/>
<path d="M693.141 469.29L712.105 455.695L710.683 480.62L704.046 471.053L693.141 469.29Z" stroke="#2A1E17" stroke-width="0.7222" stroke-miterlimit="10" stroke-linecap="round" stroke-linejoin="round"/>
<path d="M265.025 40.7859H223.066C220.696 40.7859 218.562 42.8001 218.562 45.5695H269.529C269.529 43.0518 267.395 40.7859 265.025 40.7859Z" fill="#9FCA78"/>
<path d="M266.684 96.1743H221.407C219.748 96.1743 218.562 94.9154 218.562 93.1531V45.8212H269.529V93.1531C269.529 94.6637 268.106 96.1743 266.684 96.1743Z" fill="white" stroke="#2A1E17" stroke-width="0.7222" stroke-miterlimit="10" stroke-linecap="round" stroke-linejoin="round"/>
<path d="M262.654 71.5013H226.148C225.2 71.5013 224.489 70.746 224.489 69.7389V54.3813C224.489 53.3742 225.2 52.6189 226.148 52.6189H262.654C263.602 52.6189 264.314 53.3742 264.314 54.3813V69.7389C264.314 70.746 263.602 71.5013 262.654 71.5013Z" fill="#9FCA78"/>
<path d="M263.365 87.1108H225.437" stroke="#2A1E17" stroke-width="0.7222" stroke-miterlimit="10" stroke-linecap="round" stroke-linejoin="round"/>
<path d="M263.365 78.299H225.437" stroke="#2A1E17" stroke-width="0.7222" stroke-miterlimit="10" stroke-linecap="round" stroke-linejoin="round"/>
<path d="M618.233 160.374H600.691V179.005H618.233V160.374Z" stroke="#2A1E17" stroke-width="0.7222" stroke-miterlimit="10" stroke-linecap="round" stroke-linejoin="round"/>
<path d="M636.011 142.751H618.47V161.381H636.011V142.751Z" fill="#7CA4FF"/>
<path d="M226.859 492.201H238.949V505.293H226.859V492.201Z" stroke="#2A1E17" stroke-width="0.7222" stroke-miterlimit="10" stroke-linecap="round" stroke-linejoin="round"/>
<path d="M214.362 517.667H226.689V504.575H214.362V517.667Z" fill="#FF3D43"/>
<path d="M866.189 79.5578H878.279V92.6496H866.189V79.5578Z" stroke="#2A1E17" stroke-width="0.7222" stroke-miterlimit="10" stroke-linecap="round" stroke-linejoin="round"/>
<path d="M853.681 105.076H866.008V91.9839H853.681V105.076Z" fill="#FF3D43"/>
<path d="M724.669 72.0049C713.527 72.0049 704.519 62.4378 704.519 50.6048C704.519 38.7719 713.527 29.2048 724.669 29.2048C735.81 29.2048 744.818 38.7719 744.818 50.6048C744.818 62.4378 735.81 72.0049 724.669 72.0049Z" fill="#9FCA78"/>
<path d="M714.001 54.3813C715.898 56.3955 718.031 58.6613 719.928 60.6755C720.876 61.6825 722.535 61.6825 723.484 60.6755C727.513 56.3955 731.306 52.3672 735.336 48.0872C735.81 47.5837 736.521 46.8283 736.996 46.3248C739.366 43.8072 735.81 40.0307 733.44 42.5483C729.41 46.8283 725.617 50.8566 721.587 55.1366C721.113 55.6401 720.402 56.3955 719.928 56.899C721.113 56.899 722.298 56.899 723.484 56.899C721.587 54.8849 719.454 52.619 717.557 50.6049C715.424 48.0872 711.868 52.1154 714.001 54.3813Z" fill="#F9F8F6"/>
<path d="M695.037 208.965H717.083" stroke="#2A1E17" stroke-width="0.7222" stroke-miterlimit="10" stroke-linecap="round" stroke-linejoin="round"/>
<path d="M201.969 646.281H224.014" stroke="#2A1E17" stroke-width="0.7222" stroke-miterlimit="10" stroke-linecap="round" stroke-linejoin="round"/>
<path d="M720.165 518.385H736.048" stroke="#2A1E17" stroke-width="0.7222" stroke-miterlimit="10" stroke-linecap="round" stroke-linejoin="round"/>
<path d="M759.516 389.733H642.649C638.382 389.733 635.063 386.208 635.063 381.676V340.638L617.284 328.554L635.063 318.483V277.445C635.063 272.913 638.382 269.389 642.649 269.389H759.516C763.783 269.389 767.101 272.913 767.101 277.445V381.676C767.101 386.208 763.783 389.733 759.516 389.733Z" fill="white" stroke="#2A1E17" stroke-width="0.7222" stroke-miterlimit="10" stroke-linecap="round" stroke-linejoin="round"/>
<path d="M746.241 371.102H656.398C654.027 371.102 652.131 369.088 652.131 366.57V291.544C652.131 289.026 654.027 287.012 656.398 287.012H746.241C748.611 287.012 750.508 289.026 750.508 291.544V366.57C750.508 369.088 748.611 371.102 746.241 371.102Z" fill="#7CA4FF"/>
<path d="M713.765 351.968C713.765 351.968 742.211 355.241 746.241 371.102H656.398C656.398 371.102 672.754 351.968 693.141 351.968C713.527 351.968 713.765 351.968 713.765 351.968Z" fill="#FF3D43"/>
<path d="M691.956 296.328C688.4 299.601 678.918 319.994 679.866 330.568C680.814 341.142 694.563 343.911 694.563 343.911L692.43 351.464L692.193 356.751C691.956 360.276 695.274 362.794 698.593 361.787L713.527 355.996L719.691 335.351C719.691 335.351 732.017 306.398 727.039 301.111C722.061 296.076 702.86 286.761 691.956 296.328Z" fill="white"/>
<path d="M687.926 302.37C681.051 299.852 673.94 292.299 681.999 281.977C686.978 275.683 701.675 279.459 706.89 284.243C713.527 290.789 717.557 296.328 727.751 295.069C733.203 294.314 737.47 298.09 735.81 304.384C734.151 310.93 723.01 342.652 717.083 343.156C714.476 343.408 715.424 343.911 713.765 342.652C711.631 341.394 716.609 330.819 716.609 330.819L722.298 314.958L687.926 302.37Z" fill="#2A1E17"/>
<path d="M718.505 322.259C718.505 322.259 723.01 319.742 724.195 324.777C725.617 331.071 717.083 334.848 715.187 333.337C713.29 331.826 718.505 322.259 718.505 322.259Z" fill="white"/>
<path d="M696.46 303.629C692.193 304.132 689.585 308.664 694.8 309.671C699.779 310.678 710.446 310.678 710.446 310.678L696.46 303.629Z" fill="#2A1E17"/>
<path d="M703.571 321.252C703.571 321.252 707.127 318.735 708.312 322.511" stroke="#2A1E17" stroke-width="0.7222" stroke-miterlimit="10" stroke-linecap="round" stroke-linejoin="round"/>
<path d="M684.844 315.965C684.844 315.965 688.163 311.937 688.637 316.721" stroke="#2A1E17" stroke-width="0.7222" stroke-miterlimit="10" stroke-linecap="round" stroke-linejoin="round"/>
<path d="M692.904 317.728L687.926 324.777L691.244 325.784" stroke="#2A1E17" stroke-width="0.7222" stroke-miterlimit="10" stroke-linecap="round" stroke-linejoin="round"/>
<path d="M691.956 331.323C691.956 331.323 696.223 334.848 700.253 331.323" stroke="#2A1E17" stroke-width="0.7222" stroke-miterlimit="10" stroke-linecap="round" stroke-linejoin="round"/>
<path d="M753.352 281.222L743.159 292.551L706.653 329.309C706.653 329.309 701.438 344.918 702.386 347.184C703.334 349.45 719.928 347.688 719.928 347.688C719.928 347.688 733.44 334.848 762.597 304.384C771.605 294.817 753.115 317.476 758.804 310.93C768.049 300.104 769.709 297.838 769.709 297.838L753.352 281.222Z" fill="#FFE179"/>
<path d="M706.653 329.309C706.653 329.309 701.438 344.918 702.386 347.184C703.334 349.45 719.928 347.688 719.928 347.688L715.898 345.925C715.187 345.674 714.713 345.17 714.476 344.415L712.816 339.379L708.786 336.61C708.312 336.107 707.838 335.603 707.601 334.848L706.653 329.309Z" fill="white"/>
<path d="M753.352 281.222L743.159 292.551C743.159 292.551 745.767 297.838 750.508 303.377C754.537 307.909 758.804 310.93 758.804 310.93C768.049 300.104 769.709 297.838 769.709 297.838C769.709 297.838 766.39 295.069 760.938 289.53C755.486 283.739 753.352 281.222 753.352 281.222Z" fill="#DED7D0"/>
<path d="M770.183 276.69C766.864 273.417 764.494 271.655 762.834 272.41C761.175 273.165 753.115 281.473 753.115 281.473C753.115 281.473 765.916 297.586 769.472 297.838C773.265 298.09 777.057 291.292 777.294 289.026C777.531 286.005 777.294 283.739 770.183 276.69Z" fill="#FF3D43"/>
<path d="M719.928 347.688C719.928 347.688 711.157 348.947 705.942 348.443C704.283 348.191 702.86 347.939 702.386 347.184C701.912 346.429 701.912 344.918 702.149 343.156C703.097 337.617 706.653 329.309 706.653 329.309" stroke="#2A1E17" stroke-width="0.7222" stroke-miterlimit="10" stroke-linecap="round" stroke-linejoin="round"/>
<path d="M702.149 343.156C701.912 344.918 701.912 346.429 702.386 347.184C702.86 347.939 704.283 348.191 705.942 348.443C705.942 348.443 706.179 346.932 704.757 345.17C703.097 343.408 702.149 343.156 702.149 343.156Z" fill="#2A1E17"/>
<path d="M708.786 336.358C708.786 336.358 727.513 319.742 737.707 307.657" stroke="#2A1E17" stroke-width="0.7222" stroke-miterlimit="10" stroke-linecap="round" stroke-linejoin="round"/>
<path d="M722.298 337.114L752.167 310.426" stroke="#2A1E17" stroke-width="0.7222" stroke-miterlimit="10" stroke-linecap="round" stroke-linejoin="round"/>
<path d="M714.239 344.163L712.579 339.128L708.075 336.358" stroke="#2A1E17" stroke-width="0.7222" stroke-miterlimit="10" stroke-linecap="round" stroke-linejoin="round"/>
<path d="M755.723 307.909C755.723 307.909 749.796 304.384 742.922 292.299" stroke="#2A1E17" stroke-width="0.7222" stroke-miterlimit="10" stroke-linecap="round" stroke-linejoin="round"/>
<path d="M755.723 295.824C755.723 295.824 749.797 289.026 747.426 284.998" stroke="#2A1E17" stroke-width="0.7222" stroke-miterlimit="10" stroke-linecap="round" stroke-linejoin="round"/>
<path d="M767.338 297.083C767.338 297.083 761.649 293.306 755.249 283.739" stroke="#2A1E17" stroke-width="0.7222" stroke-miterlimit="10" stroke-linecap="round" stroke-linejoin="round"/>
<path d="M130.379 294.565C133.259 294.565 135.594 292.085 135.594 289.026C135.594 285.967 133.259 283.488 130.379 283.488C127.499 283.488 125.164 285.967 125.164 289.026C125.164 292.085 127.499 294.565 130.379 294.565Z" fill="#2A1E17"/>
<path d="M306.509 289.278C309.389 289.278 311.724 286.798 311.724 283.739C311.724 280.68 309.389 278.201 306.509 278.201C303.628 278.201 301.293 280.68 301.293 283.739C301.293 286.798 303.628 289.278 306.509 289.278Z" fill="#2A1E17"/>
<path d="M268.817 468.535C271.698 468.535 274.033 466.055 274.033 462.996C274.033 459.937 271.698 457.457 268.817 457.457C265.937 457.457 263.602 459.937 263.602 462.996C263.602 466.055 265.937 468.535 268.817 468.535Z" fill="#2A1E17"/>
<path d="M854.099 242.702C856.98 242.702 859.314 240.222 859.314 237.163C859.314 234.104 856.98 231.624 854.099 231.624C851.219 231.624 848.884 234.104 848.884 237.163C848.884 240.222 851.219 242.702 854.099 242.702Z" fill="#2A1E17"/>
<path d="M868.797 498.243C871.677 498.243 874.012 495.764 874.012 492.705C874.012 489.646 871.677 487.166 868.797 487.166C865.917 487.166 863.582 489.646 863.582 492.705C863.582 495.764 865.917 498.243 868.797 498.243Z" fill="#2A1E17"/>
<path d="M123.504 241.695L139.15 339.379" stroke="#2A1E17" stroke-width="0.7222" stroke-miterlimit="10" stroke-linecap="round" stroke-linejoin="round"/>
<path d="M86.7611 311.434L105.488 297.838L104.066 322.511L97.4285 312.944L86.7611 311.434Z" fill="#2A1E17"/>
<path d="M818.067 583.088H808.822V563.702H817.593" fill="#7CA4FF"/>
<path d="M821.386 551.114C823.283 551.114 824.942 552.625 824.942 554.387V561.688H836.795C839.639 561.688 842.01 563.954 842.01 566.724V577.801C842.01 580.571 839.639 582.836 836.795 582.836H818.067V554.387C817.83 552.625 819.49 551.114 821.386 551.114Z" stroke="#2A1E17" stroke-width="0.7222" stroke-miterlimit="10" stroke-linecap="round" stroke-linejoin="round"/>
<path d="M6.40056 164.654H0.00012207V149.297H6.1635" fill="#7CA4FF"/>
<path d="M8.77097 139.73C10.1933 139.73 11.1415 140.989 11.1415 142.247V148.038H19.4383C21.5718 148.038 23.2312 149.8 23.2312 152.066V160.626C23.2312 162.892 21.5718 164.654 19.4383 164.654H6.40045V142.499C6.40045 140.989 7.58571 139.73 8.77097 139.73Z" stroke="#2A1E17" stroke-width="0.7222" stroke-miterlimit="10" stroke-linecap="round" stroke-linejoin="round"/>
</svg>
